<svg fill="#2196F3" xmlns="http://www.w3.org/2000/svg" version="1.1" xmlns:xlink="http://www.w3.org/1999/xlink" xmlns:svgjs="http://svgjs.com/svgjs" width="428.34" height="428.14"><svg id="SvgjsSvg1001" data-name="Layer 2" xmlns="http://www.w3.org/2000/svg" viewBox="0 0 428.34 428.14">
  <g id="SvgjsG1000" data-name="Layer 1">
    <g>
      <path d="M0,213.76C.66,95.78,95.45,.06,214.5,0c117.97-.06,214.01,96.15,213.84,214.33-.17,116.07-93.07,213.67-213.94,213.81C95.63,428.27,.11,332.61,0,213.76Zm9,6.05c.93,50.2,20.11,98.92,59.75,138.93,39.87,40.24,88.91,60.57,145.12,60.64,56.38,.07,105.7-20.04,145.65-60.51,39.85-40.37,60.1-89.36,59.73-146.04-.74-114.15-93.27-203.96-204.95-203.82C99.36,9.15,9.43,101.81,9,219.8Z"></path>
      <path d="M146.38,65.65c4.66-23.11,18-40.59,45.89-39.72,6.16,.19,12.33,.69,18,3.52,8.92,4.44,14.76,11.18,15.88,21.42,.95,8.68-4.51,18.29-12.68,22.29-8.29,4.06-19.11,2.63-25.35-3.62-2.32-2.32-4.16-5.12-6.33-7.84-2.31,1.97-2.6,5.08-2.61,8.1-.02,8.4,.17,16.81,.28,25.22,0,.23,.1,.46,.15,.68,34.69-3.07,62.72,24.45,64.26,55.74,1.56,31.68-19.53,57.19-51.25,62.56,.45,2.17,99.66,117.62,106.95,124.45,.6-1.95,1.07-3.92,1.81-5.79,4.44-11.33,17.61-16.87,28.42-11.99,11.85,5.35,16.74,18.63,10.76,29.81-4.31,8.06-11.13,13.49-19.27,17.46-12.23,5.97-24.38,4.74-36.48-.27-3.48-1.44-6.27-3.79-8.8-6.72-9.36-10.84-18.98-21.45-28.52-32.14-9.54-10.68-19.11-21.32-28.63-32.02-12.99-14.62-25.95-29.27-38.92-43.91-.37-.42-.76-.81-1.45-1.54-.06,1.2-.13,1.99-.13,2.77,.02,28.91,.18,57.83-.02,86.74-.06,9.16-3.83,16.85-11.43,22.5-8.22,6.12-17.17,10.55-27.32,12.17-7.68,1.22-15.45,1.57-23.02-.61-5.05-1.45-8.55-5.28-11.82-9.18-8.5-10.15-4.01-25.39,2.08-32.27,7.82-8.82,20.57-10.75,30.63-4.29,2.98,1.91,5.14,5.08,7.7,7.65,.14,.14,.55,.01,.84,0,.14-.96,.41-1.92,.41-2.88,.02-88.1,.02-176.2,.01-264.3,0-1.33-.05-2.66-.07-3.99Zm29.45,129.35c15.07-.35,26.71-6.84,34.28-19.66,8.28-14.02,8.02-28.5-.61-42.31-7.59-12.13-19.01-18.11-33.67-18.79v80.77Z"></path>
    </g>
  </g>
</svg><style>@media (prefers-color-scheme: light) { :root { filter: none; } }
</style></svg>