<?xml version="1.0" encoding="utf-8"?>
<svg xmlns="http://www.w3.org/2000/svg" viewBox="0 0 64 64" width="512" height="512">
  <path d="M21.580078 7C13.541078 7 7 13.544938 7 21.585938L7 42.417969C7 50.457969 13.544938 57 21.585938 57L42.417969 57C50.457969 57 57 50.455062 57 42.414062L57 21.580078C57 13.541078 50.455062 7 42.414062 7L21.580078 7 z M 47 15C48.104 15 49 15.896 49 17C49 18.104 48.104 19 47 19C45.896 19 45 18.104 45 17C45 15.896 45.896 15 47 15 z M 32 19C39.17 19 45 24.83 45 32C45 39.17 39.169 45 32 45C24.83 45 19 39.169 19 32C19 24.831 24.83 19 32 19 z M 32 23C27.029 23 23 27.029 23 32C23 36.971 27.029 41 32 41C36.971 41 41 36.971 41 32C41 27.029 36.971 23 32 23 z" fill="#5B5B5B" />
</svg>